<svg width="1920" height="260" viewBox="0 0 1920 260" fill="none" xmlns="http://www.w3.org/2000/svg">
<path d="M377.638 290.6C381.649 291.546 385.821 291.958 390.125 291.707L390.048 290.359C367.961 291.651 349.337 274.9 339.262 258.798C331.902 247.036 326.924 233.764 322.108 220.927C319.601 214.245 317.01 207.336 314.106 200.7C303.484 176.414 289.587 160.681 272.802 153.941C250.898 145.145 226.98 152.193 203.843 159.001C180.717 165.807 156.804 172.843 135.274 163.785C121.606 158.034 111.34 146.591 101.41 135.525C92.3433 125.418 82.9678 114.966 70.9118 108.612C50.5251 97.8764 22.5988 99.9206 -1.98006 113.956C-24.1966 126.642 -41.1783 146.106 -57.5999 164.93L-56.582 165.817C-40.2346 147.079 -23.33 127.701 -1.31204 115.127C17.6412 104.306 46.404 97.2231 70.2831 109.808C82.1262 116.048 91.4179 126.407 100.407 136.425C110.434 147.602 120.803 159.161 134.75 165.029C156.721 174.278 180.869 167.168 204.224 160.296C227.142 153.552 250.843 146.578 272.299 155.193C288.744 161.797 302.395 177.29 312.872 201.241C315.759 207.845 318.344 214.736 320.845 221.401C325.684 234.301 330.687 247.637 338.118 259.514C346.445 272.823 360.537 286.566 377.638 290.6Z" fill="#E4E4EC"/>
<path d="M377.638 290.6C381.649 291.546 385.821 291.958 390.125 291.707L390.048 290.359C367.961 291.651 349.337 274.9 339.262 258.798C331.902 247.036 326.924 233.764 322.108 220.927C319.601 214.245 317.01 207.336 314.106 200.7C303.484 176.414 289.587 160.681 272.802 153.941C250.898 145.145 226.98 152.193 203.843 159.001C180.717 165.807 156.804 172.843 135.274 163.785C121.606 158.034 111.34 146.591 101.41 135.525C92.3433 125.418 82.9678 114.966 70.9118 108.612C50.5251 97.8764 22.5988 99.9206 -1.98006 113.956C-24.1966 126.642 -41.1783 146.106 -57.5999 164.93L-56.582 165.817C-40.2346 147.079 -23.33 127.701 -1.31204 115.127C17.6412 104.306 46.404 97.2231 70.2831 109.808C82.1262 116.048 91.4179 126.407 100.407 136.425C110.434 147.602 120.803 159.161 134.75 165.029C156.721 174.278 180.869 167.168 204.224 160.296C227.142 153.552 250.843 146.578 272.299 155.193C288.744 161.797 302.395 177.29 312.872 201.241C315.759 207.845 318.344 214.736 320.845 221.401C325.684 234.301 330.687 247.637 338.118 259.514C346.445 272.823 360.537 286.566 377.638 290.6Z" fill="#DFE2E7"/>
<path d="M377.638 290.6C381.649 291.546 385.821 291.958 390.125 291.707L390.048 290.359C367.961 291.651 349.337 274.9 339.262 258.798C331.902 247.036 326.924 233.764 322.108 220.927C319.601 214.245 317.01 207.336 314.106 200.7C303.484 176.414 289.587 160.681 272.802 153.941C250.898 145.145 226.98 152.193 203.843 159.001C180.717 165.807 156.804 172.843 135.274 163.785C121.606 158.034 111.34 146.591 101.41 135.525C92.3433 125.418 82.9678 114.966 70.9118 108.612C50.5251 97.8764 22.5988 99.9206 -1.98006 113.956C-24.1966 126.642 -41.1783 146.106 -57.5999 164.93L-56.582 165.817C-40.2346 147.079 -23.33 127.701 -1.31204 115.127C17.6412 104.306 46.404 97.2231 70.2831 109.808C82.1262 116.048 91.4179 126.407 100.407 136.425C110.434 147.602 120.803 159.161 134.75 165.029C156.721 174.278 180.869 167.168 204.224 160.296C227.142 153.552 250.843 146.578 272.299 155.193C288.744 161.797 302.395 177.29 312.872 201.241C315.759 207.845 318.344 214.736 320.845 221.401C325.684 234.301 330.687 247.637 338.118 259.514C346.445 272.823 360.537 286.566 377.638 290.6Z" fill="#D6DADF"/>
<path d="M377.638 290.6C381.649 291.546 385.821 291.958 390.125 291.707L390.048 290.359C367.961 291.651 349.337 274.9 339.262 258.798C331.902 247.036 326.924 233.764 322.108 220.927C319.601 214.245 317.01 207.336 314.106 200.7C303.484 176.414 289.587 160.681 272.802 153.941C250.898 145.145 226.98 152.193 203.843 159.001C180.717 165.807 156.804 172.843 135.274 163.785C121.606 158.034 111.34 146.591 101.41 135.525C92.3433 125.418 82.9678 114.966 70.9118 108.612C50.5251 97.8764 22.5988 99.9206 -1.98006 113.956C-24.1966 126.642 -41.1783 146.106 -57.5999 164.93L-56.582 165.817C-40.2346 147.079 -23.33 127.701 -1.31204 115.127C17.6412 104.306 46.404 97.2231 70.2831 109.808C82.1262 116.048 91.4179 126.407 100.407 136.425C110.434 147.602 120.803 159.161 134.75 165.029C156.721 174.278 180.869 167.168 204.224 160.296C227.142 153.552 250.843 146.578 272.299 155.193C288.744 161.797 302.395 177.29 312.872 201.241C315.759 207.845 318.344 214.736 320.845 221.401C325.684 234.301 330.687 247.637 338.118 259.514C346.445 272.823 360.537 286.566 377.638 290.6Z" fill="#CDE5F0"/>
<path d="M245.614 237.654L249.609 238.318C252.844 218.81 247.276 197.664 234.335 180.304C221.395 162.943 202.713 151.568 183.103 149.092C172.658 147.775 161.727 148.538 151.156 149.277C132.49 150.581 114.855 151.814 100.161 142.397C85.5629 133.041 78.7398 115.738 72.1412 99.0051C70.8087 95.6248 69.4301 92.1282 68.0138 88.7739C59.2422 67.9856 41.9223 46.566 19.6086 48.7778C6.55178 50.0755 -3.55066 59.0118 -13.3205 67.6551C-23.0013 76.2208 -32.147 84.311 -43.8536 85.5403C-52.5857 86.4576 -60.8967 83.2975 -69.6921 79.951C-73.8939 78.3524 -78.2384 76.7007 -82.6325 75.5352C-92.1692 72.9859 -103.325 74.4547 -110.381 79.1524C-114.979 82.2126 -117.775 86.5089 -118.471 91.5782L-114.46 92.1291C-113.918 88.187 -111.793 84.9554 -108.137 82.5216C-101.991 78.4302 -92.1644 77.186 -83.6732 79.447C-79.4818 80.5606 -75.2379 82.1746 -71.1342 83.7362C-62.2812 87.1032 -53.1266 90.5844 -43.432 89.5669C-30.437 88.2019 -20.3728 79.2981 -10.6386 70.6881C-0.923151 62.0931 8.25264 53.9753 20.0082 52.8089C40.1305 50.811 56.0704 70.8913 64.2822 90.3494C65.6786 93.6588 67.0473 97.1323 68.3724 100.491C75.2067 117.823 82.2722 135.745 97.9738 145.808C113.798 155.949 132.933 154.611 151.437 153.318C161.813 152.592 172.544 151.843 182.597 153.111C201.114 155.452 218.803 166.242 231.088 182.724C243.376 199.206 248.671 219.228 245.614 237.654Z" fill="#99D6F4"/>
<path d="M1823.23 92.379C1839.92 91.1989 1856.59 100.541 1867.15 110.477C1876.19 118.978 1883.54 129.221 1890.64 139.127C1895.12 145.371 1899.76 151.827 1904.76 157.778C1939.11 198.616 1997.35 219.049 2049.68 208.622L2049.94 209.946C2023.87 215.141 1996.22 213.024 1969.99 203.822C1943.76 194.62 1920.85 178.999 1903.73 158.648C1898.69 152.657 1894.04 146.178 1889.55 139.914C1882.48 130.062 1875.17 119.872 1866.23 111.46C1853.44 99.4308 1831.54 88.2634 1811.87 96.4037C1799.76 101.415 1791.41 112.571 1783.33 123.359C1774.5 135.156 1765.37 147.355 1751.3 151.448C1736.24 155.834 1721.2 149.355 1706.66 143.088C1693.49 137.409 1679.86 131.537 1666.14 133.613C1645.67 136.705 1631.96 156.069 1620.7 173.978L1574.57 247.398L1573.43 246.681L1619.56 173.261C1630.97 155.098 1644.91 135.456 1665.94 132.279C1680.07 130.154 1693.85 136.096 1707.2 141.849C1722.18 148.305 1736.33 154.402 1750.93 150.154C1764.56 146.185 1773.15 134.705 1782.25 122.551C1790.44 111.618 1798.91 100.311 1811.36 95.1562C1815.26 93.5411 1819.24 92.6602 1823.23 92.379Z" fill="#DFE2E7"/>
<path d="M1823.23 92.379C1839.92 91.1989 1856.59 100.541 1867.15 110.477C1876.19 118.978 1883.54 129.221 1890.64 139.127C1895.12 145.371 1899.76 151.827 1904.76 157.778C1939.11 198.616 1997.35 219.049 2049.68 208.622L2049.94 209.946C2023.87 215.141 1996.22 213.024 1969.99 203.822C1943.76 194.62 1920.85 178.999 1903.73 158.648C1898.69 152.657 1894.04 146.178 1889.55 139.914C1882.48 130.062 1875.17 119.872 1866.23 111.46C1853.44 99.4308 1831.54 88.2634 1811.87 96.4037C1799.76 101.415 1791.41 112.571 1783.33 123.359C1774.5 135.156 1765.37 147.355 1751.3 151.448C1736.24 155.834 1721.2 149.355 1706.66 143.088C1693.49 137.409 1679.86 131.537 1666.14 133.613C1645.67 136.705 1631.96 156.069 1620.7 173.978L1574.57 247.398L1573.43 246.681L1619.56 173.261C1630.97 155.098 1644.91 135.456 1665.94 132.279C1680.07 130.154 1693.85 136.096 1707.2 141.849C1722.18 148.305 1736.33 154.402 1750.93 150.154C1764.56 146.185 1773.15 134.705 1782.25 122.551C1790.44 111.618 1798.91 100.311 1811.36 95.1562C1815.26 93.5411 1819.24 92.6602 1823.23 92.379Z" fill="#D6DADF"/>
<path d="M1823.23 92.379C1839.92 91.1989 1856.59 100.541 1867.15 110.477C1876.19 118.978 1883.54 129.221 1890.64 139.127C1895.12 145.371 1899.76 151.827 1904.76 157.778C1939.11 198.616 1997.35 219.049 2049.68 208.622L2049.94 209.946C2023.87 215.141 1996.22 213.024 1969.99 203.822C1943.76 194.62 1920.85 178.999 1903.73 158.648C1898.69 152.657 1894.04 146.178 1889.55 139.914C1882.48 130.062 1875.17 119.872 1866.23 111.46C1853.44 99.4308 1831.54 88.2634 1811.87 96.4037C1799.76 101.415 1791.41 112.571 1783.33 123.359C1774.5 135.156 1765.37 147.355 1751.3 151.448C1736.24 155.834 1721.2 149.355 1706.66 143.088C1693.49 137.409 1679.86 131.537 1666.14 133.613C1645.67 136.705 1631.96 156.069 1620.7 173.978L1574.57 247.398L1573.43 246.681L1619.56 173.261C1630.97 155.098 1644.91 135.456 1665.94 132.279C1680.07 130.154 1693.85 136.096 1707.2 141.849C1722.18 148.305 1736.33 154.402 1750.93 150.154C1764.56 146.185 1773.15 134.705 1782.25 122.551C1790.44 111.618 1798.91 100.311 1811.36 95.1562C1815.26 93.5411 1819.24 92.6602 1823.23 92.379Z" fill="#CDE5F0"/>
<path d="M1892.96 61.4379C1913.13 60.0118 1932.65 69.292 1951.62 78.3082C1961.34 82.9272 1971.39 87.7027 1981.36 90.9561C2026.88 105.818 2081.53 87.1692 2108.47 47.5767L2111.82 49.8529C2083.9 90.8781 2027.27 110.203 1980.1 94.8048C1969.88 91.4702 1959.71 86.6368 1949.88 81.9651C1927.47 71.3139 1906.31 61.2498 1884.01 66.9666C1865.65 71.6686 1852.74 85.711 1839.08 100.577C1828.17 112.449 1816.89 124.723 1802.49 131.964C1784.88 140.813 1764.48 141.235 1746.48 141.61C1728.85 141.977 1708.86 142.39 1692.16 150.64C1677.06 158.095 1663.06 175.71 1666.86 193.67L1662.9 194.507C1658.63 174.334 1673.48 155.341 1690.36 147.008C1707.88 138.358 1728.34 137.935 1746.4 137.561C1763.97 137.197 1783.88 136.785 1800.67 128.345C1814.41 121.437 1825.44 109.439 1836.1 97.8365C1849.56 83.1893 1863.48 68.0429 1883 63.0436C1886.34 62.1908 1889.66 61.6709 1892.96 61.4379Z" fill="#CAECFD"/>
<path d="M1892.96 61.4379C1913.13 60.0118 1932.65 69.292 1951.62 78.3082C1961.34 82.9272 1971.39 87.7027 1981.36 90.9561C2026.88 105.818 2081.53 87.1692 2108.47 47.5767L2111.82 49.8529C2083.9 90.8781 2027.27 110.203 1980.1 94.8048C1969.88 91.4702 1959.71 86.6368 1949.88 81.9651C1927.47 71.3139 1906.31 61.2498 1884.01 66.9666C1865.65 71.6686 1852.74 85.711 1839.08 100.577C1828.17 112.449 1816.89 124.723 1802.49 131.964C1784.88 140.813 1764.48 141.235 1746.48 141.61C1728.85 141.977 1708.86 142.39 1692.16 150.64C1677.06 158.095 1663.06 175.71 1666.86 193.67L1662.9 194.507C1658.63 174.334 1673.48 155.341 1690.36 147.008C1707.88 138.358 1728.34 137.935 1746.4 137.561C1763.97 137.197 1783.88 136.785 1800.67 128.345C1814.41 121.437 1825.44 109.439 1836.1 97.8365C1849.56 83.1893 1863.48 68.0429 1883 63.0436C1886.34 62.1908 1889.66 61.6709 1892.96 61.4379Z" fill="#99D6F4"/>
</svg>
