<svg width="438" height="348" viewBox="0 0 438 348" fill="none" xmlns="http://www.w3.org/2000/svg">
<path d="M377.638 378.6C381.649 379.546 385.821 379.958 390.125 379.707L390.048 378.359C367.961 379.651 349.337 362.9 339.262 346.798C331.902 335.036 326.924 321.764 322.108 308.927C319.601 302.245 317.01 295.336 314.106 288.7C303.484 264.414 289.587 248.681 272.802 241.941C250.898 233.145 226.98 240.193 203.843 247.001C180.717 253.807 156.804 260.843 135.274 251.785C121.606 246.034 111.34 234.591 101.41 223.525C92.3433 213.418 82.9678 202.966 70.9118 196.612C50.5251 185.876 22.5988 187.921 -1.98006 201.956C-24.1966 214.642 -41.1783 234.106 -57.5999 252.93L-56.582 253.817C-40.2346 235.079 -23.33 215.701 -1.31204 203.127C17.6412 192.306 46.404 185.223 70.2831 197.808C82.1261 204.048 91.4179 214.407 100.407 224.425C110.434 235.602 120.803 247.161 134.75 253.029C156.721 262.278 180.869 255.168 204.224 248.296C227.142 241.552 250.843 234.578 272.299 243.193C288.744 249.797 302.395 265.29 312.872 289.241C315.759 295.845 318.344 302.736 320.845 309.401C325.684 322.301 330.687 335.637 338.118 347.514C346.445 360.823 360.537 374.566 377.638 378.6Z" fill="#E4E4EC"/>
<path d="M377.638 378.6C381.649 379.546 385.821 379.958 390.125 379.707L390.048 378.359C367.961 379.651 349.337 362.9 339.262 346.798C331.902 335.036 326.924 321.764 322.108 308.927C319.601 302.245 317.01 295.336 314.106 288.7C303.484 264.414 289.587 248.681 272.802 241.941C250.898 233.145 226.98 240.193 203.843 247.001C180.717 253.807 156.804 260.843 135.274 251.785C121.606 246.034 111.34 234.591 101.41 223.525C92.3433 213.418 82.9678 202.966 70.9118 196.612C50.5251 185.876 22.5988 187.921 -1.98006 201.956C-24.1966 214.642 -41.1783 234.106 -57.5999 252.93L-56.582 253.817C-40.2346 235.079 -23.33 215.701 -1.31204 203.127C17.6412 192.306 46.404 185.223 70.2831 197.808C82.1261 204.048 91.4179 214.407 100.407 224.425C110.434 235.602 120.803 247.161 134.75 253.029C156.721 262.278 180.869 255.168 204.224 248.296C227.142 241.552 250.843 234.578 272.299 243.193C288.744 249.797 302.395 265.29 312.872 289.241C315.759 295.845 318.344 302.736 320.845 309.401C325.684 322.301 330.687 335.637 338.118 347.514C346.445 360.823 360.537 374.566 377.638 378.6Z" fill="#DFE2E7"/>
<path d="M377.638 378.6C381.649 379.546 385.821 379.958 390.125 379.707L390.048 378.359C367.961 379.651 349.337 362.9 339.262 346.798C331.902 335.036 326.924 321.764 322.108 308.927C319.601 302.245 317.01 295.336 314.106 288.7C303.484 264.414 289.587 248.681 272.802 241.941C250.898 233.145 226.98 240.193 203.843 247.001C180.717 253.807 156.804 260.843 135.274 251.785C121.606 246.034 111.34 234.591 101.41 223.525C92.3433 213.418 82.9678 202.966 70.9118 196.612C50.5251 185.876 22.5988 187.921 -1.98006 201.956C-24.1966 214.642 -41.1783 234.106 -57.5999 252.93L-56.582 253.817C-40.2346 235.079 -23.33 215.701 -1.31204 203.127C17.6412 192.306 46.404 185.223 70.2831 197.808C82.1261 204.048 91.4179 214.407 100.407 224.425C110.434 235.602 120.803 247.161 134.75 253.029C156.721 262.278 180.869 255.168 204.224 248.296C227.142 241.552 250.843 234.578 272.299 243.193C288.744 249.797 302.395 265.29 312.872 289.241C315.759 295.845 318.344 302.736 320.845 309.401C325.684 322.301 330.687 335.637 338.118 347.514C346.445 360.823 360.537 374.566 377.638 378.6Z" fill="#D6DADF"/>
<path d="M377.638 378.6C381.649 379.546 385.821 379.958 390.125 379.707L390.048 378.359C367.961 379.651 349.337 362.9 339.262 346.798C331.902 335.036 326.924 321.764 322.108 308.927C319.601 302.245 317.01 295.336 314.106 288.7C303.484 264.414 289.587 248.681 272.802 241.941C250.898 233.145 226.98 240.193 203.843 247.001C180.717 253.807 156.804 260.843 135.274 251.785C121.606 246.034 111.34 234.591 101.41 223.525C92.3433 213.418 82.9678 202.966 70.9118 196.612C50.5251 185.876 22.5988 187.921 -1.98006 201.956C-24.1966 214.642 -41.1783 234.106 -57.5999 252.93L-56.582 253.817C-40.2346 235.079 -23.33 215.701 -1.31204 203.127C17.6412 192.306 46.404 185.223 70.2831 197.808C82.1261 204.048 91.4179 214.407 100.407 224.425C110.434 235.602 120.803 247.161 134.75 253.029C156.721 262.278 180.869 255.168 204.224 248.296C227.142 241.552 250.843 234.578 272.299 243.193C288.744 249.797 302.395 265.29 312.872 289.241C315.759 295.845 318.344 302.736 320.845 309.401C325.684 322.301 330.687 335.637 338.118 347.514C346.445 360.823 360.537 374.566 377.638 378.6Z" fill="#CDE5F0"/>
<path d="M245.614 325.654L249.609 326.318C252.844 306.81 247.276 285.664 234.335 268.304C221.395 250.943 202.713 239.568 183.103 237.092C172.658 235.775 161.727 236.538 151.156 237.277C132.49 238.581 114.855 239.814 100.161 230.397C85.5629 221.041 78.7397 203.738 72.1412 187.005C70.8087 183.625 69.4301 180.128 68.0138 176.774C59.2422 155.986 41.9223 134.566 19.6086 136.778C6.55178 138.075 -3.55066 147.012 -13.3205 155.655C-23.0013 164.221 -32.147 172.311 -43.8536 173.54C-52.5857 174.458 -60.8967 171.297 -69.6921 167.951C-73.8939 166.352 -78.2384 164.701 -82.6325 163.535C-92.1692 160.986 -103.325 162.455 -110.381 167.152C-114.979 170.213 -117.775 174.509 -118.471 179.578L-114.46 180.129C-113.918 176.187 -111.793 172.955 -108.137 170.522C-101.991 166.43 -92.1644 165.186 -83.6732 167.447C-79.4818 168.561 -75.2379 170.175 -71.1342 171.736C-62.2812 175.103 -53.1266 178.584 -43.432 177.567C-30.437 176.202 -20.3728 167.298 -10.6386 158.688C-0.923146 150.093 8.25264 141.975 20.0083 140.809C40.1305 138.811 56.0704 158.891 64.2822 178.349C65.6786 181.659 67.0473 185.132 68.3724 188.491C75.2067 205.823 82.2722 223.745 97.9738 233.808C113.798 243.949 132.933 242.611 151.437 241.318C161.813 240.592 172.544 239.843 182.597 241.111C201.114 243.452 218.803 254.242 231.088 270.724C243.376 287.206 248.671 307.228 245.614 325.654Z" fill="#99D6F4"/>
</svg>
