<svg width="46" height="46" viewBox="0 0 46 46" fill="none" xmlns="http://www.w3.org/2000/svg">
<path d="M11.6645 45.8367C9.88526 45.8169 8.12277 45.4906 6.45437 44.8721C5.23603 44.4218 4.13374 43.7048 3.22809 42.7737C2.29446 41.8699 1.57647 40.7673 1.12744 39.5479C0.509491 37.8796 0.183629 36.1172 0.164155 34.3382C0.0275095 31.3807 0 30.4936 0 22.9998C0 15.5059 0.0302154 14.622 0.162802 11.6622C0.18464 9.88394 0.510903 8.12251 1.12744 6.45437C1.57865 5.23583 2.29563 4.1331 3.22628 3.22628C4.13082 2.2935 5.23362 1.57617 6.45301 1.12744C8.12141 0.508979 9.88391 0.182658 11.6631 0.162802C14.6215 0.0275095 15.51 0 22.9998 0C30.4896 0 31.3776 0.0302154 34.3373 0.162802C36.1161 0.184485 37.878 0.510751 39.5465 1.12744C40.7654 1.57676 41.8679 2.29384 42.7728 3.22583C43.7051 4.13105 44.4225 5.23384 44.8721 6.45302C45.4907 8.12139 45.8172 9.88389 45.8372 11.6631C45.9725 14.6229 46 15.5091 46 23.0007C46 30.4923 45.9725 31.3785 45.8372 34.3382C45.8157 36.1172 45.4893 37.8793 44.8721 39.5479C44.4053 40.7579 43.6902 41.8568 42.773 42.7738C41.8558 43.6908 40.7567 44.4056 39.5465 44.8721C37.8782 45.4907 36.1157 45.8172 34.3364 45.8372C31.3794 45.9725 30.4905 46 22.9989 46C15.5073 46 14.6211 45.9738 11.664 45.8372" fill="url(#paint0_radial_235_829)"/>
<path d="M11.6645 45.8368C9.88527 45.8169 8.12277 45.4906 6.45437 44.8721C5.23603 44.4218 4.13374 43.7048 3.22809 42.7737C2.29446 41.8699 1.57647 40.7673 1.12744 39.5479C0.509491 37.8796 0.183629 36.1172 0.164155 34.3382C0.0275095 31.3807 0 30.4936 0 22.9998C0 15.5059 0.0302154 14.622 0.162802 11.6622C0.18464 9.88394 0.510903 8.12251 1.12744 6.45437C1.57865 5.23583 2.29563 4.1331 3.22628 3.22628C4.13082 2.2935 5.23363 1.57617 6.45302 1.12744C8.12141 0.508979 9.88391 0.182658 11.6631 0.162802C14.6215 0.0275095 15.51 0 22.9998 0C30.4896 0 31.3776 0.0302154 34.3373 0.162802C36.1161 0.184485 37.878 0.510751 39.5465 1.12744C40.7654 1.57676 41.8679 2.29384 42.7728 3.22583C43.7051 4.13105 44.4225 5.23384 44.8721 6.45302C45.4907 8.12139 45.8172 9.88389 45.8372 11.6631C45.9725 14.6229 46 15.5091 46 23.0007C46 30.4923 45.9725 31.3785 45.8372 34.3382C45.8157 36.1172 45.4893 37.8793 44.8721 39.5479C44.4053 40.7579 43.6902 41.8568 42.773 42.7738C41.8558 43.6908 40.7567 44.4056 39.5465 44.8721C37.8782 45.4907 36.1157 45.8172 34.3364 45.8372C31.3794 45.9725 30.4905 46 22.9989 46C15.5073 46 14.6215 45.9734 11.6645 45.8368Z" fill="url(#paint1_radial_235_829)"/>
<path d="M17.3544 23.0972C17.3545 21.9706 17.6887 20.8693 18.3147 19.9326C18.9407 18.9958 19.8304 18.2658 20.8713 17.8348C21.9122 17.4037 23.0576 17.291 24.1626 17.511C25.2675 17.7309 26.2825 18.2735 27.079 19.0703C27.8756 19.867 28.418 20.8821 28.6376 21.9871C28.8573 23.0921 28.7443 24.2374 28.313 25.2783C27.8818 26.3191 27.1515 27.2086 26.2146 27.8344C25.2778 28.4602 24.1764 28.7941 23.0498 28.7939C21.5391 28.7937 20.0904 28.1934 19.0223 27.125C17.9542 26.0567 17.3543 24.6079 17.3544 23.0972ZM14.2747 23.0972C14.2747 24.8328 14.7893 26.5293 15.7536 27.9724C16.7178 29.4154 18.0883 30.5402 19.6917 31.2043C21.2951 31.8685 23.0595 32.0423 24.7617 31.7037C26.4639 31.3651 28.0275 30.5293 29.2547 29.3021C30.4819 28.0749 31.3177 26.5113 31.6563 24.8091C31.9948 23.1069 31.8211 21.3426 31.1569 19.7391C30.4927 18.1357 29.368 16.7652 27.925 15.801C26.4819 14.8368 24.7853 14.3221 23.0498 14.3221C21.8974 14.3221 20.7563 14.549 19.6916 14.99C18.627 15.4309 17.6596 16.0773 16.8447 16.8921C16.0299 17.707 15.3835 18.6744 14.9425 19.7391C14.5016 20.8037 14.2746 21.9448 14.2747 23.0972ZM30.1215 13.9744C30.1214 14.38 30.2414 14.7765 30.4666 15.1138C30.6918 15.4511 31.0119 15.7141 31.3866 15.8695C31.7612 16.0248 32.1735 16.0656 32.5713 15.9867C32.9691 15.9077 33.3346 15.7126 33.6215 15.4259C33.9084 15.1393 34.1038 14.774 34.1831 14.3763C34.2624 13.9785 34.222 13.5662 34.067 13.1914C33.9119 12.8167 33.6492 12.4963 33.3121 12.2708C32.975 12.0454 32.5786 11.9249 32.173 11.9247C31.6294 11.925 31.1081 12.141 30.7236 12.5253C30.3391 12.9096 30.1229 13.4308 30.1224 13.9744H30.1215ZM16.1467 37.0076C15.063 36.9956 13.9895 36.7973 12.9732 36.4213C12.2361 36.1372 11.5666 35.7019 11.008 35.1434C10.4493 34.585 10.0137 33.9157 9.72929 33.1788C9.35307 32.1625 9.15475 31.0889 9.14302 30.0053C9.06005 28.2041 9.04381 27.6629 9.04381 23.0995C9.04381 18.536 9.06185 17.9962 9.14302 16.1932C9.15617 15.1097 9.35444 14.0364 9.72929 13.0197C10.0134 12.2824 10.4488 11.6128 11.0075 11.0541C11.5662 10.4953 12.2358 10.0599 12.9732 9.77582C13.9895 9.39962 15.063 9.2013 16.1467 9.18956C17.9479 9.10658 18.489 9.09035 23.0507 9.09035C27.6123 9.09035 28.1539 9.10794 29.9569 9.19002C31.0404 9.20316 32.1137 9.40144 33.1304 9.77628C33.8677 10.0604 34.5373 10.4958 35.096 11.0545C35.6548 11.6133 36.0902 12.2828 36.3743 13.0201C36.7505 14.0365 36.9488 15.11 36.9606 16.1937C37.0436 17.9976 37.0598 18.536 37.0598 23.0999C37.0598 27.6638 37.0431 28.2032 36.9606 30.0062C36.948 31.0897 36.7497 32.1631 36.3743 33.1797C36.0899 33.9166 35.6543 34.5859 35.0956 35.1444C34.537 35.7028 33.8675 36.1381 33.1304 36.4222C32.1141 36.7984 31.0406 36.9967 29.9569 37.0085C28.1557 37.0914 27.6145 37.1077 23.0507 37.1077C18.4868 37.1077 17.9474 37.091 16.1467 37.0085V37.0076ZM16.0051 6.11255C14.5871 6.14043 13.1842 6.40881 11.8561 6.90626C10.7208 7.34523 9.68969 8.0166 8.82897 8.87731C7.96826 9.73803 7.29689 10.7691 6.85792 11.9044C6.36054 13.2326 6.09216 14.6355 6.06421 16.0534C5.97988 17.8754 5.96094 18.458 5.96094 23.099C5.96094 27.74 5.98033 28.3222 6.06421 30.1446C6.09215 31.5625 6.36053 32.9655 6.85792 34.2936C7.29691 35.4289 7.96829 36.46 8.829 37.3207C9.68971 38.1814 10.7208 38.8528 11.8561 39.2918C13.1843 39.789 14.5872 40.0574 16.0051 40.0855C17.8279 40.1685 18.4097 40.1888 23.0507 40.1888C27.6917 40.1888 28.2739 40.1694 30.0963 40.0855C31.5142 40.0575 32.9171 39.7891 34.2453 39.2918C35.3806 38.8528 36.4116 38.1814 37.2723 37.3207C38.1331 36.46 38.8044 35.4289 39.2434 34.2936C39.7415 32.9656 40.0099 31.5626 40.0371 30.1446C40.1201 28.3213 40.1391 27.74 40.1391 23.099C40.1391 18.458 40.1197 17.8758 40.0371 16.0534C40.0093 14.6355 39.7409 13.2325 39.2434 11.9044C38.8045 10.7693 38.1333 9.7384 37.2728 8.87771C36.4123 8.01702 35.3816 7.34553 34.2466 6.90626C32.9186 6.40849 31.5156 6.1401 30.0976 6.11255C28.2752 6.02912 27.693 6.00928 23.0529 6.00928C18.4128 6.00928 17.8293 6.02867 16.006 6.11255" fill="white"/>
<defs>
<radialGradient id="paint0_radial_235_829" cx="0" cy="0" r="1" gradientUnits="userSpaceOnUse" gradientTransform="translate(2.97689 44.9921) scale(58.4023 58.4023)">
<stop offset="0.09" stop-color="#FA8F21"/>
<stop offset="0.78" stop-color="#D82D7E"/>
</radialGradient>
<radialGradient id="paint1_radial_235_829" cx="0" cy="0" r="1" gradientUnits="userSpaceOnUse" gradientTransform="translate(31.8624 43.5147) scale(51.3946)">
<stop offset="0.64" stop-color="#8C3AAA" stop-opacity="0"/>
<stop offset="1" stop-color="#8C3AAA"/>
</radialGradient>
</defs>
</svg>
