<svg width="15" height="20" viewBox="0 0 15 20" fill="none" xmlns="http://www.w3.org/2000/svg">
<path d="M12.6389 6.82099H11.7361V4.87213C11.7361 2.18272 9.71389 0 7.22222 0C4.73056 0 2.70833 2.18272 2.70833 4.87213V6.82099H1.80556C0.807986 6.82099 0 7.6931 0 8.76984L0 18.0511C0 19.1279 0.807986 20 1.80556 20H12.6389C13.6365 20 14.4444 19.1279 14.4444 18.0511V8.76984C14.4444 7.6931 13.6365 6.82099 12.6389 6.82099ZM7.22222 1.85141C8.76597 1.85141 10.0208 3.20586 10.0208 4.87213V6.82099H4.51389V4.87213H4.42361C4.42361 3.20586 5.67847 1.85141 7.22222 1.85141ZM12.6389 18.0511H1.80556V8.76984H12.6389V18.0511ZM7.22222 15.5908C8.21979 15.5908 9.02778 14.7187 9.02778 13.642C9.02778 12.5652 8.21979 11.6931 7.22222 11.6931C6.22465 11.6931 5.41667 12.5652 5.41667 13.642C5.41667 14.7187 6.22465 15.5908 7.22222 15.5908Z" fill="#1DA1E2"/>
</svg>
