<svg width="15" height="21" viewBox="0 0 15 21" fill="none" xmlns="http://www.w3.org/2000/svg">
<path d="M7.46789 9.36863C8.31189 9.36863 9.13694 9.11341 9.83871 8.63526C10.5405 8.15711 11.0874 7.47749 11.4104 6.68235C11.7334 5.8872 11.8179 5.01225 11.6533 4.16813C11.4886 3.32402 11.0822 2.54864 10.4854 1.94007C9.88857 1.33149 9.12819 0.917049 8.30041 0.749143C7.47262 0.581238 6.61459 0.667413 5.83484 0.996771C5.05508 1.32613 4.38861 1.88388 3.9197 2.59949C3.4508 3.3151 3.20052 4.15642 3.20052 5.01708C3.20052 6.17118 3.65012 7.27802 4.4504 8.09409C5.25069 8.91016 6.33611 9.36863 7.46789 9.36863ZM7.46789 2.8413C7.88989 2.8413 8.30241 2.96891 8.6533 3.20799C9.00418 3.44707 9.27766 3.78687 9.43915 4.18445C9.60064 4.58202 9.6429 5.01949 9.56057 5.44155C9.47824 5.86361 9.27503 6.2513 8.97663 6.55558C8.67822 6.85987 8.29804 7.06709 7.88415 7.15105C7.47025 7.235 7.04124 7.19191 6.65136 7.02723C6.26148 6.86255 5.92825 6.58368 5.69379 6.22587C5.45934 5.86807 5.3342 5.44741 5.3342 5.01708C5.3342 4.44003 5.559 3.88661 5.95915 3.47857C6.35929 3.07054 6.902 2.8413 7.46789 2.8413ZM7.46789 11.5444C5.48728 11.5444 3.58779 12.3467 2.18729 13.7748C0.786793 15.203 0 17.1399 0 19.1596C0 19.4481 0.112399 19.7248 0.312471 19.9289C0.512542 20.1329 0.783897 20.2475 1.06684 20.2475C1.34978 20.2475 1.62114 20.1329 1.82121 19.9289C2.02128 19.7248 2.13368 19.4481 2.13368 19.1596C2.13368 17.717 2.69568 16.3334 3.69603 15.3134C4.69639 14.2933 6.05317 13.7202 7.46789 13.7202C8.8826 13.7202 10.2394 14.2933 11.2397 15.3134C12.2401 16.3334 12.8021 17.717 12.8021 19.1596C12.8021 19.4481 12.9145 19.7248 13.1146 19.9289C13.3146 20.1329 13.586 20.2475 13.8689 20.2475C14.1519 20.2475 14.4232 20.1329 14.6233 19.9289C14.8234 19.7248 14.9358 19.4481 14.9358 19.1596C14.9358 17.1399 14.149 15.203 12.7485 13.7748C11.348 12.3467 9.44849 11.5444 7.46789 11.5444Z" fill="#1DA1E2"/>
</svg>
