<svg width="46" height="46" viewBox="0 0 46 46" fill="none" xmlns="http://www.w3.org/2000/svg">
<rect width="45.9996" height="45.9996" rx="5" fill="url(#paint0_radial_235_838)"/>
<rect width="45.9996" height="45.9996" rx="5" fill="url(#paint1_radial_235_838)"/>
<path d="M38.2538 15.3853C38.3126 15.1924 38.3407 15.0135 38.3331 14.8538C38.3139 14.3912 37.9957 14.0552 37.247 14.0552H33.9018C33.0572 14.0552 32.6674 14.5663 32.44 15.0787C32.44 15.0787 30.3547 19.3707 27.9512 22.2009C27.1718 23.02 26.7757 22.9995 26.354 22.9995C26.1278 22.9995 25.5567 22.7261 25.5567 21.976V15.3508C25.5567 14.4641 25.3356 14.0552 24.6214 14.0552H18.681C18.161 14.0552 17.8901 14.4641 17.8901 14.8742C17.8901 15.7265 19.0375 15.9309 19.1679 18.3191V22.9484C19.1679 24.0729 18.9724 24.2773 18.5507 24.2773C17.4135 24.2773 15.1748 20.444 13.676 15.4198C13.3515 14.4308 13.0269 14.0552 12.1823 14.0552H8.80518C7.83025 14.0552 7.66797 14.5331 7.66797 15.0442C7.66797 15.9654 8.43463 20.9462 12.6193 26.6731C15.654 30.8258 19.6521 33.2217 23.1915 33.2217C25.3356 33.2217 25.5554 32.676 25.5554 31.8238V28.0263C25.5567 27.0028 25.7905 26.8328 26.4728 26.8328C26.9597 26.8328 27.9525 27.1523 29.8691 29.3884C32.0797 31.9669 32.4809 33.2217 33.7484 33.2217H37.0936C37.8705 33.2217 38.3164 32.8958 38.3343 32.2633C38.3382 32.1023 38.3152 31.9222 38.2628 31.7216C38.0149 30.9856 36.8777 29.1865 35.4594 27.4717C34.6735 26.5223 33.8979 25.5819 33.5414 25.0708C33.3025 24.7373 33.2118 24.5022 33.2233 24.2773C33.2348 24.0409 33.3574 23.816 33.5414 23.5017C33.5082 23.5017 37.8322 17.431 38.2538 15.3853Z" fill="white"/>
<defs>
<radialGradient id="paint0_radial_235_838" cx="0" cy="0" r="1" gradientUnits="userSpaceOnUse" gradientTransform="translate(10.7332 34.4997) rotate(-37.8065) scale(56.2803)">
<stop offset="0.09" stop-color="#1999E1"/>
<stop offset="0.78" stop-color="#2D71D8"/>
</radialGradient>
<radialGradient id="paint1_radial_235_838" cx="0" cy="0" r="1" gradientUnits="userSpaceOnUse" gradientTransform="translate(31.862 43.5142) scale(51.3941)">
<stop offset="0.64" stop-color="#1999E1" stop-opacity="0"/>
<stop offset="1" stop-color="#1999E1"/>
</radialGradient>
</defs>
</svg>
